<?xml version="1.0" encoding="UTF-8" standalone="no"?>
<svg
   width="256px"
   height="255px"
   viewBox="0 0 256 255"
   version="1.1"
   preserveAspectRatio="xMidYMid"
   id="svg6"
   xmlns="http://www.w3.org/2000/svg"
   xmlns:svg="http://www.w3.org/2000/svg">
  <defs
     id="defs10" />
  <circle
     style="fill:#032354;fill-opacity:1;stroke-width:0.541663"
     id="path31"
     cx="128.1864"
     cy="127.51215"
     r="125.398" />
  <g
     fill="#464342"
     id="g4"
     transform="matrix(0.94307978,0,0,0.94311055,4.0118834,11.992795)">
    <path
       d="m 21.962323,123.58131 c 0,43.29522 25.16084,80.71076 61.64605,98.44136 L 31.432243,79.066445 c -6.06908,13.603385 -9.46992,28.657435 -9.46992,44.514865 z M 205.18339,118.0617 c 0,-13.51805 -4.85567,-22.87974 -9.02036,-30.166375 -5.54458,-9.00995 -10.74159,-16.64 -10.74159,-25.64995 0,-10.05477 7.62589,-19.41438 18.36748,-19.41438 0.48494,0 0.94491,0.0604 1.41736,0.0874 C 185.74612,25.089977 159.81936,14.204773 131.343,14.204773 c -38.212677,0 -71.831937,19.605852 -91.389917,49.301852 2.56625,0.077 4.98472,0.13112 7.03896,0.13112 11.44091,0 29.1507,-1.38822 29.1507,-1.38822 5.89632,-0.34758 6.59148,8.31271 0.7014,9.00995 0,0 -5.92547,0.69723 -12.51903,1.04273 L 104.15705,190.78026 128.09409,118.98995 111.0524,72.298045 c -5.89008,-0.3455 -11.470048,-1.04273 -11.470048,-1.04273 -5.894239,-0.3455 -5.203249,-9.35753 0.690988,-9.00995 0,0 18.06361,1.38822 28.81145,1.38822 11.43883,0 29.1507,-1.38822 29.1507,-1.38822 5.90049,-0.34758 6.59356,8.31271 0.7014,9.00995 0,0 -5.93796,0.69723 -12.51903,1.04273 l 39.52807,117.581005 10.91018,-36.45814 c 4.72871,-15.12898 8.32728,-25.99545 8.32728,-35.35922 z m -71.92143,15.08735 -32.81795,95.36312 c 9.79876,2.88052 20.16156,4.45606 30.89899,4.45606 12.73756,0 24.95272,-2.20201 36.32286,-6.20019 -0.29346,-0.46829 -0.55987,-0.96572 -0.7784,-1.50686 z m 94.05815,-62.045665 c 0.47037,3.4841 0.73678,7.2242 0.73678,11.24735 0,11.099585 -2.07298,23.576975 -8.31688,39.178405 l -33.41112,96.59942 c 32.51824,-18.96273 54.39063,-54.19291 54.39063,-94.54517 0.002,-19.01685 -4.85567,-36.899385 -13.39941,-52.480005 z M 131.343,-3.9191797 c -70.304257,0 -127.5046474,57.1962247 -127.5046474,127.5004897 0,70.31258 57.2003904,127.50673 127.5046474,127.50673 70.30218,0 127.51089,-57.19415 127.51089,-127.50673 C 258.85181,53.277045 201.64518,-3.9191797 131.343,-3.9191797 Z m 0,249.1629297 C 64.262673,245.24375 9.684723,190.6658 9.684723,123.58131 9.684723,56.500985 64.260593,1.927194 131.343,1.927194 c 67.07824,0 121.65203,54.573791 121.65203,121.654116 0,67.08449 -54.57379,121.66244 -121.65203,121.66244 z"
       id="path2"
       style="fill:#ffffff" />
  </g>
</svg>
