<?xml version="1.0" encoding="UTF-8" standalone="no"?>
<svg
   width="2236.614"
   height="1174.4836"
   viewBox="0 0 172.44831 90.555508"
   version="1.1"
   id="svg40"
   sodipodi:docname="logo php.svg"
   inkscape:version="1.1 (c68e22c387, 2021-05-23)"
   xmlns:inkscape="http://www.inkscape.org/namespaces/inkscape"
   xmlns:sodipodi="http://sodipodi.sourceforge.net/DTD/sodipodi-0.dtd"
   xmlns:xlink="http://www.w3.org/1999/xlink"
   xmlns="http://www.w3.org/2000/svg"
   xmlns:svg="http://www.w3.org/2000/svg">
  <sodipodi:namedview
     id="namedview9"
     pagecolor="#ffffff"
     bordercolor="#999999"
     borderopacity="1"
     inkscape:pageshadow="0"
     inkscape:pageopacity="0"
     inkscape:pagecheckerboard="0"
     showgrid="false"
     fit-margin-top="0"
     fit-margin-left="0"
     fit-margin-right="0"
     fit-margin-bottom="0"
     inkscape:zoom="0.244"
     inkscape:cx="1116.8033"
     inkscape:cy="588.11475"
     inkscape:window-width="1600"
     inkscape:window-height="837"
     inkscape:window-x="-8"
     inkscape:window-y="-8"
     inkscape:window-maximized="1"
     inkscape:current-layer="svg40" />
  <ellipse
     style="fill:#032354;fill-opacity:1;stroke-width:0.269895"
     id="path31"
     cx="86.224152"
     cy="45.277752"
     rx="86.224152"
     ry="45.277752" />
  <defs
     id="defs5">
    <path
       id="a"
       d="m 96.378,141.648 c 47.528,0 86.06,-20.27 86.06,-45.271 0,-25.001 -38.531,-45.271 -86.06,-45.271 -47.529,0 -86.06,20.269 -86.06,45.271 0,25.002 38.532,45.271 86.06,45.271 z" />
  </defs>
  <clipPath
     id="b">
    <use
       xlink:href="#a"
       overflow="visible"
       id="use7"
       x="0"
       y="0"
       width="100%"
       height="100%" />
  </clipPath>
  <path
     d="m 103.88415,59.632198 4.102,-21.112006 c 0.926,-4.765 0.156,-8.319 -2.287,-10.565 -2.367,-2.173 -6.384999,-3.23 -12.282999,-3.23 h -7.103996 l 2.032,-10.46 a 1.344,1.344 0 0 0 -1.319,-1.602 h -9.805 c -0.644,0 -1.197,0.457 -1.32,1.089 l -4.357,22.413 c -0.396,-2.522 -1.372,-4.69 -2.934,-6.479 -2.876,-3.292 -7.425,-4.961 -13.522,-4.961 h -19.004 c -0.644,0 -1.197,0.457 -1.32,1.088 l -8.817,45.368006 c -0.077,0.395 0.026,0.801 0.282,1.111 0.255,0.311 0.635,0.49 1.038,0.49 h 9.882 c 0.644,0 1.197,-0.457 1.32,-1.09 l 2.133,-10.973 h 7.356 c 3.86,0 7.104,-0.418 9.636,-1.242 2.589,-0.842 4.972,-2.27 7.072,-4.236 1.697,-1.559 3.099,-3.305 4.178,-5.188 l -1.761,9.064 c -0.077,0.395 0.026,0.803 0.282,1.111 0.255,0.311 0.636,0.49 1.038,0.49 h 9.805 c 0.644,0 1.197,-0.457 1.32,-1.088 l 4.839,-24.903006 h 6.727996 c 2.867,0 3.707,0.571 3.936,0.816 0.207,0.224 0.637,1.013 0.154,3.5 l -3.9,20.073006 a 1.347,1.347 0 0 0 1.32,1.601 h 9.960999 a 1.341,1.341 0 0 0 1.319,-1.085 z M 58.426155,42.188192 c -0.616,3.165 -1.776,5.422 -3.45,6.708996 -1.7,1.31101 -4.419,1.97501 -8.082,1.97501 h -4.38 l 3.167,-16.298006 h 5.663 c 4.16,0 5.836,0.889 6.509,1.634 0.933,1.034 1.131,3.103 0.573,5.98 z m 86.758995,-12.502 c -2.875,-3.292 -7.424,-4.961 -13.521,-4.961 h -19.004 c -0.645,0 -1.197,0.457 -1.32,1.088 l -8.816,45.368006 c -0.078,0.395 0.025,0.801 0.281,1.111 0.256,0.31 0.637,0.49 1.037,0.49 h 9.883 c 0.645,0 1.197,-0.457 1.32,-1.09 l 2.133,-10.973 h 7.357 c 3.861,0 7.102,-0.418 9.635,-1.242 2.59,-0.842 4.973,-2.27 7.072,-4.236 1.752,-1.609 3.193,-3.418 4.285,-5.371 1.092,-1.953006 1.875,-4.131006 2.332,-6.475006 1.123,-5.781 0.224,-10.393 -2.674,-13.709 z m -9.621,12.502 c -0.617,3.165 -1.777,5.422 -3.449,6.708996 -1.701,1.31101 -4.42,1.97501 -8.082,1.97501 h -4.381 l 3.166,-16.298006 h 5.664 c 4.16,0 5.836,0.889 6.51,1.634 0.931,1.034 1.13,3.103 0.572,5.98 z"
     fill-rule="evenodd"
     clip-rule="evenodd"
     fill="#ffffff"
     id="path36" />
</svg>
