<?xml version="1.0" encoding="UTF-8" standalone="no"?>
<!-- Created with Inkscape (http://www.inkscape.org/) -->

<svg
   width="104.76994mm"
   height="104.31441mm"
   viewBox="0 0 104.76994 104.31441"
   version="1.1"
   id="svg842"
   sodipodi:docname="logo html5.svg"
   inkscape:version="1.1 (c68e22c387, 2021-05-23)"
   xmlns:inkscape="http://www.inkscape.org/namespaces/inkscape"
   xmlns:sodipodi="http://sodipodi.sourceforge.net/DTD/sodipodi-0.dtd"
   xmlns="http://www.w3.org/2000/svg"
   xmlns:svg="http://www.w3.org/2000/svg">
  <sodipodi:namedview
     id="namedview17"
     pagecolor="#ffffff"
     bordercolor="#999999"
     borderopacity="1"
     inkscape:pageshadow="0"
     inkscape:pageopacity="0"
     inkscape:pagecheckerboard="0"
     inkscape:document-units="mm"
     showgrid="false"
     fit-margin-top="0"
     fit-margin-left="0"
     fit-margin-right="0"
     fit-margin-bottom="0"
     inkscape:zoom="0.54342031"
     inkscape:cx="194.1407"
     inkscape:cy="367.11914"
     inkscape:window-width="1600"
     inkscape:window-height="837"
     inkscape:window-x="-8"
     inkscape:window-y="-8"
     inkscape:window-maximized="1"
     inkscape:current-layer="svg842" />
  <defs
     id="defs839" />
  <g
     id="layer1"
     transform="translate(-53.523769,-51.701693)">
    <g
       id="layer1-5"
       transform="translate(-5.0107383,-44.868841)">
      <ellipse
         style="fill:#032354;fill-opacity:1;stroke-width:0.225787"
         id="path31"
         cx="110.91948"
         cy="148.72774"
         rx="52.384972"
         ry="52.157204" />
      <g
         id="g1039"
         transform="matrix(0.25572707,0,0,0.26132604,-219.51153,-98.637764)">
        <g
           id="Logo_artwork" />
        <g
           id="Guides_to_delete"
           transform="translate(7.1251193,-21.912823)">
          <g
             id="g1021"
             transform="matrix(0.15384686,0,0,0.15572847,1140.5133,794.08555)">
            <polygon
               fill="#e34e26"
               points="999.615,1898.016 352.732,1718.4 208.627,101.984 1791.373,101.984 1647.093,1718.528 "
               id="polygon1009"
               style="fill:#ececec"
               transform="matrix(1.0194367,0,0,1.0902145,-75.880162,95.845832)" />
            <polygon
               fill="#ef662a"
               points="1000,1760.716 1523.565,1615.585 1646.918,234.108 1000,234.108 "
               id="polygon1011"
               transform="matrix(1.0647907,0,0,1.1218382,-125.61698,74.994135)"
               style="fill:#ffffff;fill-opacity:1" />
            <polygon
               fill="#ffffff"
               points="1478.168,630.648 1478.773,630.648 1496.532,432.378 503.468,432.378 556.906,1031.897 1244.048,1031.897 1220.988,1289.041 999.744,1348.857 778.919,1289.128 764.155,1124.017 565.155,1124.017 593.611,1442.302 999.697,1555.086 1406.296,1442.302 1460.806,833.669 738.229,833.669 720.086,630.648 "
               id="polygon1013"
               transform="matrix(1.1778335,0,0,1.229626,-238.34718,-48.044903)"
               style="fill:#032381;fill-opacity:1" />
            <g
               id="g1019"
               transform="matrix(1.1771147,0,0,1.2297191,-237.9853,-48.085158)"
               style="fill:#032354;fill-opacity:1">
              <polygon
                 fill="#ebebeb"
                 points="720.086,630.648 1000,630.648 1000,432.378 503.468,432.378 556.906,1031.897 1000,1031.897 1000,833.669 738.229,833.669 "
                 id="polygon1015"
                 style="fill:#032354;fill-opacity:1" />
              <polygon
                 fill="#ebebeb"
                 points="999.697,1555.086 1000,1555.001 1000,1348.771 999.744,1348.857 778.919,1289.128 764.155,1124.017 565.155,1124.017 593.611,1442.302 "
                 id="polygon1017"
                 style="fill:#032354;fill-opacity:1" />
            </g>
          </g>
        </g>
      </g>
    </g>
  </g>
</svg>
