<?xml version="1.0" encoding="UTF-8" standalone="no"?>
<svg
   height="2500"
   viewBox="0 -.11376601 49.74245785 51.31690859"
   width="2418"
   version="1.1"
   id="svg4"
   xmlns="http://www.w3.org/2000/svg"
   xmlns:svg="http://www.w3.org/2000/svg">
  <defs
     id="defs8" />
  <ellipse
     style="display:inline;fill:#032354;fill-opacity:1;stroke-width:0.10932"
     id="path31"
     cx="24.987034"
     cy="25.702446"
     rx="24.800562"
     ry="25.825994" />
  <path
     d="m 46.633478,16.485597 a 0.66763226,0.64702602 0 0 1 0.02311,0.167155 v 8.775241 a 0.66020495,0.63982795 0 0 1 -0.331753,0.555051 l -7.599783,4.240459 v 8.40494 c 0,0.228738 -0.125441,0.439882 -0.330103,0.55505 l -15.863901,8.850421 c -0.03631,0.02 -0.07592,0.0328 -0.115536,0.04639 -0.01485,0.0048 -0.02888,0.01359 -0.04457,0.01759 a 0.66433123,0.64382687 0 0 1 -0.338354,0 c -0.01816,-0.0048 -0.03466,-0.01439 -0.05199,-0.0208 -0.03631,-0.0128 -0.07427,-0.024 -0.108932,-0.04319 L 6.0110666,39.183493 a 0.66103021,0.64062773 0 0 1 -0.331753,-0.55505 V 12.302721 c 0,-0.05758 0.00826,-0.113569 0.023107,-0.167955 0.00495,-0.01839 0.016505,-0.0352 0.023107,-0.05358 0.012379,-0.03359 0.023932,-0.06798 0.042088,-0.09917 0.012379,-0.0208 0.030533,-0.03759 0.045389,-0.05678 0.01898,-0.02559 0.036311,-0.05198 0.058593,-0.07438 0.018981,-0.01839 0.043738,-0.032 0.065195,-0.04799 0.023932,-0.01919 0.045389,-0.03999 0.072623,-0.05518 h 8.229e-4 L 13.940955,7.3224614 a 0.66185547,0.64142752 0 0 1 0.660205,0 l 7.930711,4.4252096 h 0.0017 c 0.02641,0.01599 0.04869,0.03599 0.07262,0.05438 0.02146,0.01599 0.04539,0.03039 0.06437,0.04799 0.02311,0.0232 0.03961,0.04959 0.05942,0.07518 0.01403,0.01919 0.03301,0.03599 0.04457,0.05678 0.01898,0.03198 0.02971,0.06558 0.04291,0.09917 0.0066,0.01839 0.01816,0.0352 0.02311,0.05438 a 0.66763226,0.64702602 0 0 1 0.02311,0.167155 v 16.44278 l 6.60865,-3.687808 v -8.405737 c 0,-0.05598 0.0082,-0.112769 0.02311,-0.166355 0.0057,-0.01919 0.01651,-0.03599 0.02311,-0.05438 0.0132,-0.03359 0.02475,-0.06797 0.04291,-0.09917 0.01238,-0.0208 0.03054,-0.03758 0.04457,-0.05678 0.01981,-0.02559 0.03631,-0.05199 0.05942,-0.07438 0.01899,-0.01839 0.04291,-0.03198 0.06437,-0.04799 0.02475,-0.01919 0.04622,-0.03998 0.07262,-0.05519 h 8.22e-4 l 7.931538,-4.425211 a 0.66103021,0.64062773 0 0 1 0.660205,0 l 7.930712,4.425211 c 0.02806,0.01599 0.04952,0.03599 0.07427,0.05438 0.02063,0.01599 0.04457,0.03039 0.06355,0.04799 0.02311,0.02319 0.03961,0.04959 0.05942,0.07518 0.01486,0.01919 0.03301,0.03599 0.04457,0.05679 0.01898,0.03119 0.02972,0.06559 0.04291,0.09917 0.0074,0.0184 0.01816,0.0352 0.02311,0.05438 z m -1.298953,8.572095 v -7.297238 l -2.775337,1.548385 -3.83414,2.139424 V 28.7455 l 6.610301,-3.687808 z m -7.930713,13.20045 v -7.302036 l -3.77142,2.087438 -10.769594,5.956799 v 7.370818 z M 7.0013739,13.410424 v 24.847718 l 14.5393641,8.11222 v -7.369219 l -7.595658,-4.16608 -0.0024,-0.0016 -0.0033,-0.0016 c -0.02558,-0.01439 -0.04704,-0.03519 -0.07097,-0.05279 -0.02064,-0.01599 -0.04457,-0.02879 -0.06272,-0.04639 l -0.0017,-0.0024 c -0.02146,-0.02 -0.03631,-0.04478 -0.05447,-0.06718 -0.01651,-0.0216 -0.03631,-0.03998 -0.04952,-0.06238 l -8.22e-4,-0.0024 c -0.01486,-0.024 -0.02393,-0.05279 -0.03466,-0.07997 -0.01073,-0.024 -0.02476,-0.04639 -0.03136,-0.07198 v -7.85e-4 c -0.0082,-0.03039 -0.0099,-0.06238 -0.0132,-0.09357 -0.0033,-0.024 -0.0099,-0.04799 -0.0099,-0.07199 V 17.098232 L 9.7767108,14.958008 7.0013739,13.411223 Z m 7.2705081,-4.793911 -6.6078274,3.686208 6.6061764,3.68621 6.607001,-3.687009 -6.607001,-3.685409 z m 3.436367,23.005014 3.833315,-2.138624 V 13.410424 l -2.775337,1.548384 -3.83414,2.139424 v 16.072479 z m 20.356595,-18.654984 -6.607003,3.686209 6.607003,3.686208 6.606175,-3.687008 z m -0.661032,8.48172 -3.834139,-2.139424 -2.775338,-1.548385 v 7.297238 l 3.833317,2.138625 2.77616,1.549183 z m -15.202869,16.444378 9.690983,-5.361759 4.844255,-2.679278 -6.60205,-3.68381 -7.601435,4.24126 -6.928026,3.86536 z"
     fill="#ff2d20"
     id="path2"
     style="fill:#ffffff;stroke-width:0.812419" />
</svg>
