<?xml version="1.0" encoding="UTF-8" standalone="no"?>
<svg
   height="2994.3828"
   viewBox="0 0 363.34715 359.32594"
   width="3028.4985"
   version="1.1"
   id="svg12"
   sodipodi:docname="Logo Figma.svg"
   inkscape:version="1.1 (c68e22c387, 2021-05-23)"
   xmlns:inkscape="http://www.inkscape.org/namespaces/inkscape"
   xmlns:sodipodi="http://sodipodi.sourceforge.net/DTD/sodipodi-0.dtd"
   xmlns="http://www.w3.org/2000/svg"
   xmlns:svg="http://www.w3.org/2000/svg">
  <defs
     id="defs16" />
  <sodipodi:namedview
     id="namedview14"
     pagecolor="#ffffff"
     bordercolor="#999999"
     borderopacity="1"
     inkscape:pageshadow="0"
     inkscape:pageopacity="0"
     inkscape:pagecheckerboard="0"
     showgrid="false"
     inkscape:zoom="0.1767767"
     inkscape:cx="1134.1993"
     inkscape:cy="817.41544"
     inkscape:window-width="1600"
     inkscape:window-height="837"
     inkscape:window-x="-8"
     inkscape:window-y="-8"
     inkscape:window-maximized="1"
     inkscape:current-layer="svg12"
     fit-margin-top="0"
     fit-margin-left="0"
     fit-margin-right="0"
     fit-margin-bottom="0" />
  <ellipse
     style="fill:#032354;fill-opacity:1;stroke-width:22.3364;stroke-miterlimit:2"
     id="path855"
     cx="181.68991"
     cy="179.66296"
     rx="181.70992"
     ry="179.66296" />
  <path
     d="m 134.98911,332.73814 c 27.6,0 50,-22.4 50,-50 v -50 h -50 c -27.6,0 -50.000001,22.4 -50.000001,50 0,27.6 22.400001,50 50.000001,50 z"
     fill="#0acf83"
     id="path2"
     style="fill:#ffffff;fill-opacity:1" />
  <path
     d="m 84.989109,182.73814 c 0,-27.6 22.400001,-50 50.000001,-50 h 50 v 100 h -50 c -27.6,0 -50.000001,-22.4 -50.000001,-50 z"
     fill="#a259ff"
     id="path4"
     style="fill:#ffffff;fill-opacity:1" />
  <path
     d="m 84.989109,82.738144 c 0,-27.6 22.400001,-50 50.000001,-50 h 50 v 99.999996 h -50 c -27.6,0 -50.000001,-22.4 -50.000001,-49.999996 z"
     fill="#f24e1e"
     id="path6"
     style="fill:#ffffff;fill-opacity:1;stroke:none" />
  <path
     d="m 184.98911,32.738144 h 50 c 27.6,0 50,22.4 50,50 0,27.599996 -22.4,49.999996 -50,49.999996 h -50 z"
     fill="#ff7262"
     id="path8"
     style="fill:#ffffff;fill-opacity:1" />
  <path
     d="m 284.98911,182.73814 c 0,27.6 -22.4,50 -50,50 -27.6,0 -50,-22.4 -50,-50 0,-27.6 22.4,-50 50,-50 27.6,0 50,22.4 50,50 z"
     fill="#1abcfe"
     id="path10"
     style="fill:#ffffff;fill-opacity:1" />
</svg>
