<?xml version="1.0" encoding="UTF-8" standalone="no"?>
<svg
   fill="#000000"
   viewBox="0 0 24 24"
   width="48px"
   height="48px"
   version="1.1"
   id="svg4"
   sodipodi:docname="logo github.svg"
   inkscape:version="1.1 (c68e22c387, 2021-05-23)"
   xmlns:inkscape="http://www.inkscape.org/namespaces/inkscape"
   xmlns:sodipodi="http://sodipodi.sourceforge.net/DTD/sodipodi-0.dtd"
   xmlns="http://www.w3.org/2000/svg"
   xmlns:svg="http://www.w3.org/2000/svg">
  <sodipodi:namedview
     id="namedview5"
     pagecolor="#ffffff"
     bordercolor="#999999"
     borderopacity="1"
     inkscape:pageshadow="0"
     inkscape:pageopacity="0"
     inkscape:pagecheckerboard="0"
     showgrid="false"
     inkscape:zoom="12.708333"
     inkscape:cx="23.960656"
     inkscape:cy="23.960656"
     inkscape:window-width="1600"
     inkscape:window-height="837"
     inkscape:window-x="-8"
     inkscape:window-y="-8"
     inkscape:window-maximized="1"
     inkscape:current-layer="svg4" />
  <defs
     id="defs8" />
  <path
     d="M 10.9,2.1 C 6.3,2.6 2.6,6.3 2.1,10.8 1.6,15.5 4.3,19.7 8.4,21.3 8.7,21.4 9,21.2 9,20.8 v -1.6 c 0,0 -0.4,0.1 -0.9,0.1 C 6.7,19.3 6.1,18.1 6,17.4 5.9,17 5.7,16.7 5.4,16.4 5.1,16.3 5,16.3 5,16.2 5,16 5.3,16 5.4,16 6,16 6.5,16.7 6.7,17 7.2,17.8 7.8,18 8.1,18 8.5,18 8.8,17.9 9,17.8 9.1,17.1 9.4,16.4 10,16 7.7,15.5 6,14.2 6,12 6,10.9 6.5,9.8 7.2,9 7.1,8.8 7,8.3 7,7.6 7,7.2 7,6.6 7.3,6 7.3,6 8.7,6 10.1,7.3 10.6,7.1 11.3,7 12,7 12.7,7 13.4,7.1 14,7.3 15.3,6 16.8,6 16.8,6 17,6.6 17,7.2 17,7.6 17,8.4 16.9,8.8 16.8,9 c 0.7,0.8 1.2,1.8 1.2,3 0,2.2 -1.7,3.5 -4,4 0.6,0.5 1,1.4 1,2.3 v 2.6 c 0,0.3 0.3,0.6 0.7,0.5 3.7,-1.5 6.3,-5.1 6.3,-9.3 0,-6 -5.1,-10.7 -11.1,-10 z"
     id="path2"
     style="fill:#000000;fill-opacity:1" />
</svg>
